<?xml version="1.0" standalone="no"?>
<!DOCTYPE svg PUBLIC "-//W3C//DTD SVG 20010904//EN"
 "http://www.w3.org/TR/2001/REC-SVG-20010904/DTD/svg10.dtd">
<svg version="1.0" xmlns="http://www.w3.org/2000/svg"
 width="450.000000pt" height="450.000000pt" viewBox="0 0 450.000000 450.000000"
 preserveAspectRatio="xMidYMid meet">
<metadata>
Created by potrace 1.15, written by Peter Selinger 2001-2017
</metadata>
<g transform="translate(0.000000,450.000000) scale(0.100000,-0.100000)"
fill="#000000" stroke="none">
<path d="M2108 3962 c-10 -2 -18 -7 -18 -11 0 -4 -14 -6 -30 -5 -26 2 -30 -1
-25 -17 5 -14 2 -17 -9 -13 -9 3 -16 14 -16 23 -1 14 -2 14 -14 -1 -7 -10 -23
-18 -34 -18 -11 0 -33 -5 -49 -12 -15 -6 -30 -12 -33 -13 -30 -10 -128 -60
-153 -78 -45 -31 -107 -99 -101 -109 3 -5 1 -7 -4 -6 -5 2 -33 -18 -61 -44
-29 -27 -55 -48 -59 -48 -7 -1 -38 -48 -85 -130 -51 -90 -90 -497 -61 -632 26
-120 47 -178 76 -210 26 -30 28 -37 28 -119 0 -50 7 -113 16 -146 18 -65 33
-134 39 -176 2 -15 7 -32 11 -38 3 -6 7 -27 9 -47 3 -46 40 -181 64 -236 28
-63 31 -69 46 -96 8 -14 17 -51 21 -82 4 -32 10 -55 14 -53 5 3 6 14 3 25 -4
13 0 20 10 20 16 0 30 -26 22 -41 -4 -5 2 -6 11 -2 12 4 15 3 10 -5 -4 -7 -3
-12 2 -12 5 0 32 -20 58 -45 27 -25 52 -45 57 -45 4 0 7 -6 7 -14 0 -8 10 -18
23 -22 12 -4 29 -15 38 -25 9 -10 19 -16 22 -13 3 4 20 -4 36 -16 17 -12 31
-19 31 -15 0 3 6 0 14 -7 8 -7 11 -17 8 -22 -3 -5 0 -6 5 -3 6 4 23 -4 39 -18
15 -13 30 -23 32 -20 2 2 16 -10 31 -26 15 -16 31 -25 35 -21 4 4 14 -1 21
-11 7 -10 22 -18 32 -16 24 3 83 -20 83 -33 0 -6 9 -8 20 -5 11 3 18 1 15 -3
-3 -5 0 -10 5 -12 6 -2 13 -12 14 -23 4 -23 -12 -47 -25 -39 -5 3 -9 0 -9 -5
0 -6 -7 -11 -16 -11 -8 0 -12 -4 -9 -10 3 -5 1 -10 -6 -10 -9 0 -9 -3 0 -14 8
-10 21 -12 44 -6 42 10 97 39 97 51 0 5 14 9 31 9 17 0 28 -4 24 -10 -3 -5 -3
-10 1 -10 17 0 79 26 86 35 5 6 8 5 8 -2 0 -10 6 -10 25 -1 14 6 25 15 25 19
0 4 14 10 30 14 18 4 28 11 25 18 -3 7 0 5 6 -4 10 -14 15 -13 38 8 23 23 26
23 32 6 4 -10 8 -14 8 -9 1 6 7 2 14 -9 8 -10 19 -15 26 -11 6 4 11 4 10 -1
-4 -20 2 -27 12 -13 8 11 9 1 6 -40 -3 -30 -3 -47 0 -37 6 22 23 22 23 0 0
-14 3 -14 22 3 19 15 20 16 9 2 -12 -16 -10 -18 17 -18 26 0 31 5 37 30 4 16
4 34 0 40 -3 5 -2 10 4 10 17 0 32 102 32 221 0 64 5 122 10 130 7 12 9 11 9
-3 0 -9 6 -21 13 -25 21 -12 36 -66 25 -87 -6 -10 -7 -32 -3 -49 3 -18 6 -50
7 -72 0 -29 2 -33 5 -12 2 15 9 27 15 27 5 0 8 -6 5 -13 -3 -7 1 -26 7 -42
l12 -29 0 42 c-1 23 -5 42 -9 42 -5 0 -5 10 -2 21 5 16 4 19 -5 14 -9 -5 -11
-4 -6 4 24 39 9 111 -33 160 -12 13 -21 30 -21 38 0 26 -50 113 -74 128 -20
14 -26 29 -35 98 -20 157 -22 207 -11 269 5 35 13 78 16 96 4 25 10 32 27 32
64 1 158 114 191 230 5 17 0 13 -18 -15 -30 -48 -35 -24 -6 32 12 24 24 79 31
152 10 94 17 118 36 142 23 27 23 29 7 54 -16 24 -34 33 -34 17 0 -5 -19 -19
-42 -32 -24 -12 -54 -32 -67 -44 l-24 -21 6 30 c3 17 9 38 13 48 5 15 3 17
-19 12 l-26 -7 15 54 c23 87 19 226 -11 377 -15 74 -28 143 -30 153 -13 68
-38 143 -57 170 -10 14 -18 31 -18 37 0 6 -4 11 -10 11 -5 0 -10 5 -10 11 0
12 -64 79 -75 79 -3 0 -18 11 -33 25 -15 14 -37 28 -50 32 -14 3 -21 11 -18
19 3 9 0 11 -11 7 -11 -4 -14 -2 -9 5 4 7 3 12 -2 12 -4 0 -26 16 -48 35 -21
19 -47 35 -56 35 -10 0 -18 3 -18 8 0 9 -96 55 -116 55 -8 0 -14 3 -14 7 0 3
-28 12 -63 19 -61 12 -102 8 -91 -10 3 -5 0 -9 -5 -9 -6 0 -11 6 -11 14 0 7
-9 16 -20 19 -11 3 -18 2 -15 -3 3 -4 -2 -11 -11 -14 -23 -9 -34 -7 -34 4 0 6
8 10 17 10 9 0 14 2 11 5 -7 7 -68 12 -90 7z m139 -354 c-6 -3 -16 -4 -24 -1
-7 3 -13 0 -13 -6 0 -6 5 -11 10 -11 6 0 10 -5 10 -11 0 -6 -7 -8 -16 -5 -8 3
-12 2 -9 -3 3 -5 1 -12 -5 -16 -5 -3 -10 -1 -10 4 0 6 -5 11 -11 11 -8 0 -8
-5 1 -15 14 -16 50 -21 50 -6 0 5 9 7 20 4 14 -4 20 0 20 11 0 9 8 16 18 17
106 6 202 7 202 2 0 -4 -8 -15 -17 -26 -17 -19 -17 -20 3 -15 17 4 20 2 17
-13 -4 -13 0 -19 11 -19 10 0 13 6 10 15 -4 9 0 15 10 15 9 0 16 -4 16 -10 0
-5 9 -10 20 -10 13 0 20 -7 20 -19 0 -11 5 -23 10 -26 6 -4 8 -11 5 -16 -3 -5
1 -6 9 -3 11 4 16 0 16 -10 0 -9 6 -16 13 -16 8 -1 7 -5 -4 -13 -9 -7 -16 -27
-16 -47 0 -19 2 -29 5 -22 2 6 9 9 15 5 6 -4 8 0 4 10 -4 11 -1 17 7 17 7 0
13 -14 14 -32 9 -162 9 -204 0 -215 -6 -7 -8 -26 -6 -42 2 -17 0 -27 -5 -24
-5 3 -6 -11 -2 -36 5 -30 3 -42 -7 -45 -7 -2 -22 -8 -33 -12 -35 -14 -59 -16
-123 -15 -58 1 -103 -10 -101 -27 4 -24 -3 -42 -16 -42 -8 0 -12 -6 -9 -14 3
-8 -14 -29 -43 -52 -68 -55 -69 -56 -82 -96 -9 -28 -9 -50 -1 -90 6 -29 13
-88 15 -130 4 -82 18 -114 68 -156 32 -28 35 -42 8 -42 -19 0 -71 -56 -71 -77
0 -5 -20 -20 -45 -33 l-45 -23 -39 27 c-39 27 -82 29 -98 3 -10 -17 27 -38 48
-27 27 15 48 12 67 -11 9 -11 38 -32 63 -46 35 -18 48 -33 53 -54 3 -16 10
-29 16 -29 6 0 6 7 -2 19 -9 15 -7 23 10 41 12 13 25 21 28 17 4 -4 13 -2 21
5 7 6 16 8 20 4 3 -3 0 -6 -8 -6 -12 0 -12 -2 0 -9 7 -5 10 -14 6 -21 -5 -8
-12 -7 -24 4 -10 9 -21 13 -25 9 -3 -4 4 -12 16 -19 19 -10 26 -10 42 4 11 9
16 11 12 5 -4 -8 -1 -13 8 -13 10 0 13 -6 10 -15 -4 -10 0 -15 11 -15 17 0 17
-1 0 -20 -9 -10 -20 -18 -24 -17 -3 1 -27 -9 -53 -21 -26 -13 -68 -24 -95 -25
-26 -1 -51 -6 -55 -12 -5 -6 -8 -4 -8 5 0 13 -1 13 -11 0 -7 -10 -12 -11 -15
-4 -3 7 -32 10 -85 7 -63 -4 -84 -1 -97 11 -10 8 -26 13 -37 11 -11 -2 -24 -4
-29 -4 -18 -2 4 -14 56 -32 68 -24 288 -37 339 -20 20 6 53 14 73 16 34 5 37
3 31 -16 -6 -19 -5 -20 14 -9 15 7 27 8 39 1 9 -6 11 -11 5 -11 -7 0 -13 -6
-13 -14 0 -18 -53 -73 -79 -81 -12 -3 -19 -10 -16 -14 2 -5 -7 -9 -20 -9 -14
0 -34 -10 -45 -22 -11 -13 -20 -18 -20 -13 0 6 -10 10 -22 9 -13 -1 -22 -6
-21 -12 1 -6 -12 -9 -28 -8 -25 2 -28 0 -18 -12 7 -8 18 -13 26 -10 7 3 13 1
13 -4 0 -6 6 -10 14 -10 7 0 16 -9 19 -20 3 -11 10 -20 16 -20 6 0 11 9 11 20
0 24 15 26 28 5 7 -13 10 -12 20 10 6 14 18 25 26 25 63 0 156 122 158 209 1
22 10 39 34 59 38 33 43 54 25 109 -9 28 -18 40 -27 36 -8 -3 -14 -1 -14 4 0
5 -16 8 -35 8 -19 -1 -35 2 -35 7 0 5 -4 6 -10 3 -5 -3 -10 3 -10 14 0 11 5
23 10 26 13 8 13 82 0 90 -14 9 -70 128 -70 149 0 16 -45 96 -60 106 -22 15
-53 129 -31 116 9 -6 48 73 43 87 -3 10 14 26 50 50 32 20 42 22 32 5 -4 -7 1
-6 12 3 24 21 76 37 136 43 26 3 53 8 59 12 8 5 9 3 4 -5 -6 -10 -3 -11 11 -3
22 11 47 5 38 -9 -3 -5 0 -9 5 -9 6 0 11 -13 11 -30 0 -35 1 -35 -64 -15 -58
18 -95 19 -49 2 17 -7 35 -16 40 -21 5 -5 0 -6 -10 -3 -10 4 -42 7 -70 7 -40
0 -48 3 -37 11 12 8 9 9 -12 5 -71 -16 -101 -40 -114 -91 -7 -29 -6 -29 12
-14 10 9 32 23 49 32 29 14 30 14 47 -14 10 -16 25 -29 33 -29 9 0 14 -4 10
-10 -3 -5 17 -7 52 -5 68 5 92 -8 67 -36 -25 -28 -14 -30 34 -9 23 11 42 15
42 9 0 -16 46 19 60 46 7 14 17 25 21 25 11 0 36 -51 34 -70 0 -8 4 -18 10
-22 7 -5 6 -8 -1 -8 -8 0 -10 -19 -7 -60 3 -33 2 -67 -2 -77 -4 -10 -9 -31
-11 -47 -3 -16 -11 -37 -19 -46 -8 -9 -15 -23 -15 -31 0 -8 -4 -19 -9 -24 -12
-14 -33 -127 -37 -201 -5 -91 -10 -113 -47 -187 l-34 -69 -13 31 c-7 18 -10
34 -7 38 4 3 2 14 -3 24 -7 12 -6 19 2 21 9 3 8 10 -5 22 -16 17 -17 16 -19
-21 -2 -52 -4 -65 -12 -83 -3 -9 -8 -36 -10 -60 -2 -40 -9 -59 -38 -110 -4 -8
-12 -25 -18 -37 -5 -13 -14 -23 -19 -23 -6 0 -18 -13 -27 -29 -17 -29 -19 -29
-46 -15 -16 8 -28 10 -28 4 0 -5 6 -10 14 -10 9 0 12 -8 8 -25 -2 -14 -9 -25
-14 -25 -6 0 -8 9 -5 20 4 15 0 20 -15 20 -15 0 -18 -4 -11 -12 5 -7 6 -26 3
-43 l-7 -30 -11 25 c-9 22 -17 14 -13 -12 0 -4 -8 -12 -19 -18 -16 -8 -22 -5
-37 20 -20 35 -40 41 -22 8 11 -21 11 -22 -5 -9 -14 12 -16 12 -10 -3 7 -19
-6 -21 -25 -3 -11 10 -13 9 -8 -5 4 -12 2 -15 -9 -11 -8 3 -21 0 -28 -6 -10
-9 -16 -9 -21 -1 -4 6 -15 8 -25 5 -12 -4 -22 1 -29 12 -6 11 -11 13 -11 5 0
-7 -4 -10 -10 -7 -5 3 -10 -3 -10 -14 0 -12 -4 -21 -10 -21 -5 0 -7 8 -3 17 5
15 3 16 -7 6 -17 -16 -41 2 -33 23 3 9 -2 14 -16 14 -12 0 -21 6 -21 15 0 8
-4 15 -10 15 -5 0 -10 6 -10 14 0 8 -9 18 -21 21 -11 4 -18 9 -15 12 3 4 1 12
-5 20 -6 7 -8 13 -5 13 4 0 1 6 -6 14 -7 7 -18 12 -24 9 -6 -2 -22 5 -35 16
l-24 20 25 10 c23 9 24 10 3 10 -12 1 -24 -5 -26 -11 -3 -7 -6 -4 -6 6 -1 11
-3 17 -6 14 -14 -13 8 -57 31 -62 14 -4 22 -11 19 -16 -11 -18 6 -32 19 -15
11 15 12 14 12 -3 0 -20 -11 -23 -33 -9 -6 4 -14 1 -17 -5 -3 -7 -3 0 0 17 3
16 2 27 -2 23 -4 -4 -13 -3 -20 3 -11 9 -16 6 -22 -11 -8 -21 -9 -21 -16 -5
-3 10 -3 27 0 39 6 18 5 19 -8 9 -14 -12 -28 -8 -28 8 0 5 6 6 14 3 25 -9 46
57 26 81 -6 7 -10 17 -9 21 3 21 -2 28 -11 14 -8 -12 -10 -11 -10 8 0 26 -15
29 -29 5 -6 -10 -11 -13 -11 -6 0 6 7 18 15 27 17 16 20 42 6 50 -5 4 -12 0
-14 -6 -3 -7 -6 -2 -8 12 -1 14 -3 30 -4 35 -2 6 -4 15 -5 20 -1 6 -2 14 -1
18 1 5 -3 6 -8 3 -5 -4 -14 2 -20 11 -10 17 -10 17 -11 -2 0 -19 -1 -18 -15 2
-9 12 -15 26 -14 30 3 20 -2 25 -15 14 -12 -10 -14 -9 -12 6 2 10 -7 29 -20
42 -13 13 -24 31 -24 40 0 10 -4 21 -9 26 -13 15 -56 199 -67 285 -3 22 -3
167 0 368 0 34 5 62 9 62 5 0 6 4 2 9 -3 6 0 13 7 18 24 15 40 43 45 78 3 22
0 35 -7 35 -8 0 -8 6 1 21 6 12 7 19 1 15 -14 -8 -20 13 -17 62 1 24 0 40 -3
37 -11 -11 -30 17 -24 37 4 15 2 19 -8 13 -10 -6 -10 -4 -2 10 7 14 6 23 -5
34 -11 10 -12 16 -4 19 6 2 11 14 11 27 0 12 7 39 15 59 9 20 13 41 10 47 -4
5 0 11 7 14 8 3 14 15 15 26 2 28 23 51 40 45 9 -4 11 -1 7 6 -5 8 -2 9 9 5
20 -8 40 24 31 48 -5 11 -2 16 7 15 34 -5 42 -1 29 15 -7 9 -8 15 -2 15 18 0
22 -29 6 -45 -12 -12 -12 -15 -2 -15 14 0 42 28 49 48 3 7 11 6 23 -4 17 -12
17 -14 4 -14 -9 0 -19 -4 -23 -10 -3 -5 9 -7 31 -4 39 5 64 -13 41 -29 -7 -5
6 -5 28 0 22 4 61 8 87 8 25 0 44 4 41 8 -10 16 33 36 77 37 l45 1 -22 18
c-21 17 -21 20 -5 26 20 8 103 17 85 9 -23 -10 -14 -24 15 -24 21 0 24 2 12
10 -11 7 -7 10 18 10 23 0 32 5 32 17 0 15 2 14 19 -3 11 -12 14 -22 8 -26z"/>
<path d="M1812 2869 c-29 -10 -66 -20 -82 -23 -38 -5 -50 -14 -50 -33 0 -9 -6
-13 -15 -9 -10 3 -15 -1 -16 -12 0 -11 -2 -13 -6 -4 -3 9 -13 2 -29 -19 -29
-40 -31 -65 -5 -65 11 0 19 3 19 6 -3 13 15 40 27 40 7 0 18 7 25 15 7 8 16
13 20 10 4 -3 11 2 14 11 3 8 11 12 17 8 17 -10 183 -5 187 7 2 5 10 9 18 9
26 0 28 30 4 56 -27 28 -54 29 -128 3z"/>
<path d="M1866 2735 c5 -11 -1 -15 -23 -15 -15 0 -45 -9 -66 -20 -40 -22 -46
-20 -21 4 13 14 13 16 0 16 -18 0 -86 -78 -86 -100 0 -15 28 -20 50 -9 3 1 14
2 25 3 13 1 19 7 17 17 -4 26 29 33 45 10 25 -36 100 -16 115 31 2 6 14 5 30
-1 34 -13 40 -5 22 31 -16 30 -49 48 -89 48 -18 0 -23 -4 -19 -15z"/>
<path d="M2857 871 c-20 -22 -37 -45 -37 -51 0 -5 -4 -10 -8 -10 -9 0 -27 -51
-37 -105 -5 -30 -5 -30 8 -6 l14 24 5 -26 c3 -14 2 -30 -3 -34 -4 -4 -9 -17
-11 -28 -1 -11 -10 -23 -18 -27 -12 -5 -12 -7 3 -7 25 -1 21 -15 -15 -55 -27
-28 -43 -35 -88 -41 -84 -10 -125 -25 -136 -48 -5 -11 -16 -23 -24 -25 -13 -5
-13 -3 0 14 14 19 14 19 -8 0 -25 -22 -26 -21 11 -30 22 -5 27 -3 25 8 -5 24
17 19 23 -6 l6 -23 10 25 c9 21 17 25 59 26 27 1 56 4 64 7 8 3 31 8 50 11 19
3 43 7 53 9 21 4 57 59 58 90 1 21 1 21 9 -3 7 -23 8 -22 9 11 1 20 9 44 21
57 11 12 20 27 21 34 1 7 5 2 9 -12 8 -24 8 -23 9 8 1 25 5 32 21 32 11 0 20
7 20 15 0 8 6 12 14 9 8 -3 17 0 21 5 3 6 11 9 16 6 5 -4 9 3 9 15 0 12 -30
52 -73 96 l-72 76 -38 -41z"/>
<path d="M1898 783 c-75 -76 -185 -238 -193 -283 -7 -38 6 -38 35 0 12 16 27
27 31 24 5 -3 9 2 9 10 0 9 9 25 20 36 11 11 20 24 20 29 0 12 26 21 61 21 16
0 29 4 29 8 0 5 10 19 23 32 12 14 21 28 20 32 -2 5 2 8 7 8 6 0 10 9 10 19 0
11 5 23 10 26 18 11 10 105 -9 105 -4 0 -37 -30 -73 -67z"/>
</g>
</svg>
